<svg width="14" height="14" viewBox="0 0 14 14" fill="none" xmlns="http://www.w3.org/2000/svg">
<path fill-rule="evenodd" clip-rule="evenodd" d="M6.3035 2.35933e-08C5.29649 0.000109057 4.30417 0.241439 3.40959 0.703788C2.51501 1.16614 1.74421 1.83605 1.16171 2.65745C0.57922 3.47884 0.201981 4.42782 0.0615779 5.42494C-0.0788256 6.42206 0.0216918 7.43831 0.354715 8.38861C0.687739 9.33891 1.24358 10.1956 1.9757 10.887C2.70783 11.5784 3.59493 12.0843 4.56275 12.3625C5.53057 12.6406 6.55095 12.6829 7.53847 12.4857C8.52598 12.2886 9.4519 11.8578 10.2387 11.2293L12.8129 13.8034C12.945 13.931 13.122 14.0016 13.3056 14C13.4893 13.9984 13.665 13.9247 13.7948 13.7948C13.9247 13.665 13.9984 13.4893 14 13.3057C14.0016 13.122 13.931 12.9451 13.8034 12.813L11.2292 10.2389C11.9703 9.31143 12.4344 8.19356 12.5681 7.01395C12.7018 5.83435 12.4997 4.64095 11.9851 3.57114C11.4704 2.50133 10.6641 1.59858 9.65897 0.966799C8.65383 0.335022 7.49072 -0.000102667 6.3035 2.35933e-08ZM2.10071 6.30387C2.10071 5.75198 2.20942 5.2055 2.42063 4.69561C2.63184 4.18573 2.94141 3.72244 3.33168 3.3322C3.72194 2.94195 4.18526 2.63239 4.69516 2.42119C5.20507 2.20999 5.75158 2.10129 6.3035 2.10129C6.85542 2.10129 7.40193 2.20999 7.91184 2.42119C8.42174 2.63239 8.88505 2.94195 9.27532 3.3322C9.66558 3.72244 9.97516 4.18573 10.1864 4.69561C10.3976 5.2055 10.5063 5.75198 10.5063 6.30387C10.5063 7.41847 10.0635 8.48741 9.27532 9.27555C8.48714 10.0637 7.41815 10.5065 6.3035 10.5065C5.18885 10.5065 4.11985 10.0637 3.33168 9.27555C2.5435 8.48741 2.10071 7.41847 2.10071 6.30387Z" fill="black"/>
</svg>
