<svg width="24" height="15" viewBox="0 0 24 15" fill="none" xmlns="http://www.w3.org/2000/svg">
<path fill-rule="evenodd" clip-rule="evenodd" d="M0 13.875C0 14.1734 0.118526 14.4595 0.329505 14.6705C0.540483 14.8815 0.826631 15 1.125 15C1.42337 15 1.70952 14.8815 1.9205 14.6705C2.13147 14.4595 2.25 14.1734 2.25 13.875V1.125C2.25 0.826631 2.13147 0.540483 1.9205 0.329505C1.70952 0.118526 1.42337 0 1.125 0C0.826631 0 0.540483 0.118526 0.329505 0.329505C0.118526 0.540483 0 0.826631 0 1.125L0 13.875ZM11.7615 1.83C11.9722 2.04094 12.0905 2.32687 12.0905 2.625C12.0905 2.92313 11.9722 3.20906 11.7615 3.42L8.8065 6.375H22.875C23.1734 6.375 23.4595 6.49353 23.6705 6.7045C23.8815 6.91548 24 7.20163 24 7.5C24 7.79837 23.8815 8.08452 23.6705 8.29549C23.4595 8.50647 23.1734 8.625 22.875 8.625H8.8065L11.7615 11.58C11.872 11.683 11.9607 11.8072 12.0222 11.9452C12.0837 12.0832 12.1167 12.2322 12.1194 12.3832C12.1221 12.5343 12.0943 12.6843 12.0377 12.8244C11.9811 12.9645 11.8969 13.0917 11.7901 13.1986C11.6832 13.3054 11.556 13.3896 11.4159 13.4462C11.2758 13.5028 11.1258 13.5306 10.9747 13.5279C10.8237 13.5252 10.6747 13.4922 10.5367 13.4307C10.3987 13.3692 10.2745 13.2805 10.1715 13.17L5.295 8.295L4.5 7.5L5.295 6.705L10.17 1.83C10.2745 1.72546 10.3985 1.64253 10.5351 1.58594C10.6716 1.52936 10.818 1.50024 10.9658 1.50024C11.1135 1.50024 11.2599 1.52936 11.3964 1.58594C11.533 1.64253 11.657 1.72546 11.7615 1.83Z" fill="black"/>
</svg>
