<svg width="20" height="22" viewBox="0 0 20 22" fill="none" xmlns="http://www.w3.org/2000/svg">
<path d="M19.2 4.92484L10.7385 0.194579C10.5124 0.0669477 10.2583 0 10 0C9.7417 0 9.48762 0.0669477 9.26154 0.194579L0.8 4.9268C0.558354 5.06189 0.356638 5.26078 0.215915 5.50271C0.0751925 5.74464 0.000625248 6.02073 0 6.30216V15.6978C0.000625248 15.9793 0.0751925 16.2554 0.215915 16.4973C0.356638 16.7392 0.558354 16.9381 0.8 17.0732L9.26154 21.8054C9.48762 21.9331 9.7417 22 10 22C10.2583 22 10.5124 21.9331 10.7385 21.8054L19.2 17.0732C19.4416 16.9381 19.6434 16.7392 19.7841 16.4973C19.9248 16.2554 19.9994 15.9793 20 15.6978V6.30314C19.9999 6.02122 19.9256 5.74451 19.7848 5.50201C19.6441 5.25952 19.4421 5.06016 19.2 4.92484ZM10 10.2151L2.27404 5.8925L10 1.56994L17.726 5.8925L10 10.2151ZM10.7692 20.0037V11.5737L18.4615 7.27277V15.6978L10.7692 20.0037Z" fill="black"/>
</svg>
