<svg width="21" height="21" viewBox="0 0 21 21" fill="none" xmlns="http://www.w3.org/2000/svg">
<path d="M6.75 15.75C6.55109 15.75 6.36032 15.6709 6.21967 15.5303C6.07902 15.3896 6 15.1989 6 15V5.99997C6.00007 5.87217 6.03279 5.74652 6.09506 5.63492C6.15733 5.52332 6.24708 5.42949 6.3558 5.36232C6.46451 5.29515 6.58859 5.25688 6.71626 5.25113C6.84392 5.24538 6.97093 5.27234 7.08525 5.32947L16.0853 9.82947C16.2097 9.89182 16.3143 9.98756 16.3874 10.106C16.4605 10.2244 16.4992 10.3608 16.4992 10.5C16.4992 10.6391 16.4605 10.7755 16.3874 10.894C16.3143 11.0124 16.2097 11.1081 16.0853 11.1705L7.08525 15.6705C6.98117 15.7226 6.8664 15.7498 6.75 15.75ZM7.5 7.21347V13.7865L14.073 10.5L7.5 7.21347Z" fill="black"/>
<path d="M10.5 1.5C12.28 1.5 14.0201 2.02784 15.5001 3.01677C16.9802 4.00571 18.1337 5.41131 18.8149 7.05585C19.4961 8.70038 19.6743 10.51 19.3271 12.2558C18.9798 14.0016 18.1226 15.6053 16.864 16.864C15.6053 18.1226 14.0016 18.9798 12.2558 19.3271C10.51 19.6743 8.70039 19.4961 7.05585 18.8149C5.41132 18.1337 4.00571 16.9802 3.01678 15.5001C2.02785 14.0201 1.5 12.28 1.5 10.5C1.5 8.11305 2.44822 5.82387 4.13604 4.13604C5.82387 2.44821 8.11306 1.5 10.5 1.5ZM10.5 0C8.4233 0 6.39323 0.615814 4.66652 1.76957C2.9398 2.92332 1.59399 4.5632 0.79927 6.48182C0.00454947 8.40045 -0.203386 10.5116 0.201759 12.5484C0.606904 14.5852 1.60693 16.4562 3.07538 17.9246C4.54383 19.3931 6.41476 20.3931 8.45156 20.7982C10.4884 21.2034 12.5996 20.9955 14.5182 20.2007C16.4368 19.406 18.0767 18.0602 19.2304 16.3335C20.3842 14.6068 21 12.5767 21 10.5C21 7.71523 19.8938 5.04451 17.9246 3.07538C15.9555 1.10625 13.2848 0 10.5 0Z" fill="black"/>
</svg>
