<svg width="20" height="20" viewBox="0 0 20 20" fill="none" xmlns="http://www.w3.org/2000/svg">
<mask id="mask0_18_1465" style="mask-type:luminance" maskUnits="userSpaceOnUse" x="0" y="0" width="20" height="20">
<path d="M16.75 1H2.75C2.28587 1 1.84075 1.18437 1.51256 1.51256C1.18437 1.84075 1 2.28587 1 2.75V16.75C1 17.2141 1.18437 17.6592 1.51256 17.9874C1.84075 18.3156 2.28587 18.5 2.75 18.5H16.75C17.2141 18.5 17.6592 18.3156 17.9874 17.9874C18.3156 17.6592 18.5 17.2141 18.5 16.75V2.75C18.5 2.28587 18.3156 1.84075 17.9874 1.51256C17.6592 1.18437 17.2141 1 16.75 1Z" fill="white" stroke="white" stroke-width="2" stroke-linecap="round" stroke-linejoin="round"/>
<path d="M4.5 4.5V8M11.5 11.5V15M8 4.5V8M11.5 4.5H15M4.5 11.5H8M11.5 8H15M4.5 15H8M15 11.5V15" stroke="black" stroke-width="2" stroke-linecap="round" stroke-linejoin="round"/>
</mask>
<g mask="url(#mask0_18_1465)">
<path d="M-0.75 -0.75H20.25V20.25H-0.75V-0.75Z" fill="black"/>
</g>
</svg>
