<svg width="24" height="19" viewBox="0 0 24 19" fill="none" xmlns="http://www.w3.org/2000/svg">
<path d="M2.33333 18.6667C1.69167 18.6667 1.14256 18.4384 0.686 17.9818C0.229444 17.5253 0.000777778 16.9758 0 16.3333V2.33333C0 1.69167 0.228667 1.14256 0.686 0.686C1.14333 0.229444 1.69244 0.000777778 2.33333 0H21C21.6417 0 22.1912 0.228666 22.6485 0.686C23.1058 1.14333 23.3341 1.69244 23.3333 2.33333V16.3333C23.3333 16.975 23.1051 17.5245 22.6485 17.9818C22.1919 18.4392 21.6424 18.6674 21 18.6667H2.33333ZM2.33333 16.3333H10.5V2.33333H2.33333V16.3333ZM12.8333 16.3333H21V2.33333H12.8333V16.3333ZM18.9583 12.8333C19.2111 12.8333 19.4203 12.7505 19.586 12.5848C19.7517 12.4192 19.8341 12.2103 19.8333 11.9583C19.8333 11.7056 19.7505 11.4967 19.5848 11.3318C19.4192 11.1669 19.2103 11.0841 18.9583 11.0833H14.875C14.6222 11.0833 14.4134 11.1662 14.2485 11.3318C14.0836 11.4975 14.0008 11.7063 14 11.9583C14 12.2111 14.0828 12.4203 14.2485 12.586C14.4142 12.7517 14.623 12.8341 14.875 12.8333H18.9583ZM18.9583 9.91667C19.2111 9.91667 19.4203 9.83383 19.586 9.66817C19.7517 9.5025 19.8341 9.29367 19.8333 9.04167C19.8333 8.78889 19.7505 8.58006 19.5848 8.41517C19.4192 8.25028 19.2103 8.16744 18.9583 8.16667H14.875C14.6222 8.16667 14.4134 8.2495 14.2485 8.41517C14.0836 8.58083 14.0008 8.78967 14 9.04167C14 9.29444 14.0828 9.50367 14.2485 9.66933C14.4142 9.835 14.623 9.91744 14.875 9.91667H18.9583ZM18.9583 7C19.2111 7 19.4203 6.91717 19.586 6.7515C19.7517 6.58583 19.8341 6.377 19.8333 6.125C19.8333 5.87222 19.7505 5.66339 19.5848 5.4985C19.4192 5.33361 19.2103 5.25078 18.9583 5.25H14.875C14.6222 5.25 14.4134 5.33283 14.2485 5.4985C14.0836 5.66417 14.0008 5.873 14 6.125C14 6.37778 14.0828 6.587 14.2485 6.75267C14.4142 6.91833 14.623 7.00078 14.875 7H18.9583Z" fill="black"/>
</svg>
