<svg width="26" height="18" viewBox="0 0 26 18" fill="none" xmlns="http://www.w3.org/2000/svg">
<path d="M15.6667 10.3333L17 7.66667M2.33333 1H9.568C9.80084 1.00016 10.0296 1.0613 10.2315 1.17733C10.4333 1.29335 10.6013 1.46022 10.7187 1.66133L12.1373 4.092C12.4099 4.55943 12.7745 4.96669 13.209 5.28915C13.6435 5.6116 14.139 5.84255 14.6653 5.968L20.9013 7.45333C22.0682 7.73102 23.1075 8.39395 23.8512 9.33506C24.5949 10.2762 24.9996 11.4405 25 12.64V15.6667C25 16.0203 24.8595 16.3594 24.6095 16.6095C24.3594 16.8595 24.0203 17 23.6667 17H2.33333C1.97971 17 1.64057 16.8595 1.39052 16.6095C1.14048 16.3594 1 16.0203 1 15.6667V2.33333C1 1.97971 1.14048 1.64057 1.39052 1.39052C1.64057 1.14048 1.97971 1 2.33333 1Z" stroke="black" stroke-width="2" stroke-linecap="round" stroke-linejoin="round"/>
<path d="M7.66667 17V15.6667C7.66667 14.2522 7.10476 12.8956 6.10457 11.8954C5.10438 10.8952 3.74782 10.3333 2.33333 10.3333H1M10.3333 9L12.3333 5" stroke="black" stroke-width="2" stroke-linecap="round" stroke-linejoin="round"/>
</svg>
