<svg width="13" height="13" viewBox="0 0 13 13" fill="none" xmlns="http://www.w3.org/2000/svg">
<path fill-rule="evenodd" clip-rule="evenodd" d="M1.41667 0C1.04094 0 0.680609 0.149255 0.414932 0.414932C0.149255 0.680609 0 1.04094 0 1.41667V11.3333C0 11.7091 0.149255 12.0694 0.414932 12.3351C0.680609 12.6007 1.04094 12.75 1.41667 12.75H11.3333C11.7091 12.75 12.0694 12.6007 12.3351 12.3351C12.6007 12.0694 12.75 11.7091 12.75 11.3333V1.41667C12.75 1.04094 12.6007 0.680609 12.3351 0.414932C12.0694 0.149255 11.7091 0 11.3333 0H1.41667ZM5.66667 1.41667H1.41667V4.95833H5.66667V1.41667ZM1.41667 6.375H5.66667C6.04239 6.375 6.40272 6.22574 6.6684 5.96007C6.93408 5.69439 7.08333 5.33406 7.08333 4.95833V1.41667H11.3333V11.3333H1.41667V6.375Z" fill="black"/>
</svg>
