<svg width="24" height="18" viewBox="0 0 24 18" fill="none" xmlns="http://www.w3.org/2000/svg">
<path d="M12.8581 18V12.8571H16.2869L12.0009 7.71429L7.71484 12.8571H11.1437V18H6.85763V17.9571C6.71362 17.9657 6.57647 18 6.42903 18C4.72395 18 3.0887 17.3227 1.88302 16.1171C0.677342 14.9115 0 13.2764 0 11.5714C0 8.27314 2.49446 5.58514 5.69526 5.21657C5.97589 3.74965 6.75896 2.42635 7.90978 1.47428C9.06059 0.522222 10.5072 0.000905167 12.0009 0C13.4947 0.000835995 14.9416 0.522091 16.0927 1.47413C17.2438 2.42617 18.0272 3.7495 18.3082 5.21657C21.509 5.58514 24 8.27314 24 11.5714C24 13.2764 23.3227 14.9115 22.117 16.1171C20.9113 17.3227 19.2761 18 17.571 18C17.427 18 17.2881 17.9657 17.1424 17.9571V18H12.8581Z" fill="black"/>
</svg>
