<svg width="15" height="14" viewBox="0 0 15 14" fill="none" xmlns="http://www.w3.org/2000/svg">
<path d="M14.9014 12.7679C13.9492 11.1512 12.4624 9.89141 10.6803 9.19146C11.5666 8.54842 12.2212 7.65191 12.5515 6.62892C12.8818 5.60593 12.871 4.50833 12.5207 3.49159C12.1704 2.47485 11.4983 1.59052 10.5996 0.963867C9.70098 0.337211 8.6213 0 7.51353 0C6.40577 0 5.32609 0.337211 4.42742 0.963867C3.52876 1.59052 2.85667 2.47485 2.50636 3.49159C2.15606 4.50833 2.14529 5.60593 2.47559 6.62892C2.80589 7.65191 3.46051 8.54842 4.34672 9.19146C2.56464 9.89141 1.07785 11.1512 0.125693 12.7679C0.0666939 12.8597 0.0273712 12.962 0.0100627 13.0688C-0.00724572 13.1756 -0.0021867 13.2847 0.0249392 13.3895C0.052065 13.4943 0.100704 13.5929 0.167964 13.6792C0.235225 13.7655 0.319733 13.8378 0.416466 13.8919C0.513199 13.9459 0.620182 13.9806 0.731054 13.9939C0.841926 14.0072 0.954424 13.9987 1.06186 13.9691C1.1693 13.9395 1.26948 13.8892 1.35645 13.8214C1.44342 13.7536 1.5154 13.6695 1.56812 13.5742C2.82651 11.4698 5.04884 10.2147 7.51353 10.2147C9.97823 10.2147 12.2006 11.4705 13.4589 13.5742C13.5732 13.7519 13.7544 13.8797 13.9643 13.9305C14.1741 13.9814 14.3962 13.9512 14.5835 13.8465C14.7709 13.7418 14.9087 13.5707 14.9681 13.3695C15.0274 13.1682 15.0035 12.9525 14.9014 12.7679ZM3.90226 5.10838C3.90226 4.41737 4.11405 3.74187 4.51087 3.16731C4.90768 2.59276 5.47168 2.14494 6.13156 1.8805C6.79143 1.61606 7.51754 1.54688 8.21806 1.68169C8.91858 1.8165 9.56205 2.14925 10.0671 2.63787C10.5721 3.12649 10.9161 3.74903 11.0554 4.42677C11.1948 5.10451 11.1232 5.807 10.8499 6.44541C10.5766 7.08383 10.1137 7.62949 9.51985 8.0134C8.92598 8.3973 8.22778 8.60221 7.51353 8.60221C6.5561 8.60115 5.6382 8.2327 4.96119 7.57771C4.28419 6.92273 3.90336 6.03468 3.90226 5.10838Z" fill="black"/>
</svg>
